<svg xmlns="http://www.w3.org/2000/svg" version="1.1" xmlns:xlink="http://www.w3.org/1999/xlink" xmlns:svgjs="http://svgjs.dev/svgjs" width="1500" height="1500" viewBox="0 0 1500 1500"><rect width="1500" height="1500" fill="#ffffff"></rect><g transform="matrix(0.6666666666666666,0,0,0.6666666666666666,250,250)"><svg viewBox="0 0 280 280" data-background-color="#ffffff" preserveAspectRatio="xMidYMid meet" height="1500" width="1500" xmlns="http://www.w3.org/2000/svg" xmlns:xlink="http://www.w3.org/1999/xlink"><g id="tight-bounds" transform="matrix(1,0,0,1,0,0)"><svg viewBox="0 0 280 280" height="280" width="280"><g><svg viewBox="0 0 280 280" height="280" width="280"><g><svg viewBox="0 0 280 280" height="280" width="280"><g id="textblocktransform"><svg viewBox="0 0 280 280" height="280" width="280" id="textblock"><g><svg viewBox="0 0 280 280" height="280" width="280"><g transform="matrix(1,0,0,1,90.50252531694167,90.61155059157397)"><svg viewBox="0 0 98.99494936611666 98.77689881685207" height="98.77689881685207" width="98.99494936611666"><g id="icon-0"><svg xmlns:x="http://ns.adobe.com/Extensibility/1.0/" xmlns:i="http://ns.adobe.com/AdobeIllustrator/10.0/" xmlns:graph="http://ns.adobe.com/Graphs/1.0/" xmlns="http://www.w3.org/2000/svg" xmlns:xlink="http://www.w3.org/1999/xlink" version="1.1" x="0" y="0" viewBox="4.6 4.7 90.80000000000001 90.6" enable-background="new 0 0 100 100" xml:space="preserve" height="98.77689881685207" width="98.99494936611666" class="icon-jxe-0" data-fill-palette-color="accent" id="jxe-0"><path d="M37.6 48.8C37.6 49.6 36.9 50.3 36.1 50.3H30.5C29.7 50.3 29 49.6 29 48.8V43.2C29 42.4 29.7 41.7 30.5 41.7H36.1C36.9 41.7 37.6 42.4 37.6 43.2zM49.4 43.2C49.4 42.4 48.7 41.7 47.9 41.7H42.3C41.5 41.7 40.8 42.4 40.8 43.2V48.8C40.8 49.6 41.5 50.3 42.3 50.3H47.9C48.7 50.3 49.4 49.6 49.4 48.8zM61.2 43.2C61.2 42.4 60.5 41.7 59.7 41.7H54C53.2 41.7 52.5 42.4 52.5 43.2V48.8C52.5 49.6 53.2 50.3 54 50.3H59.6C60.4 50.3 61.1 49.6 61.1 48.8V43.2zM37.6 54.6C37.6 53.8 36.9 53.1 36.1 53.1H30.5C29.7 53.1 29 53.8 29 54.6V60.2C29 61 29.7 61.7 30.5 61.7H36.1C36.9 61.7 37.6 61 37.6 60.2zM49.4 54.6C49.4 53.8 48.7 53.1 47.9 53.1H42.3C41.5 53.1 40.8 53.8 40.8 54.6V60.2C40.8 61 41.5 61.7 42.3 61.7H47.9C48.7 61.7 49.4 61 49.4 60.2zM59.7 53.1H54C53.2 53.1 52.5 53.8 52.5 54.6V60.2C52.5 61 53.2 61.7 54 61.7H59.6C60.4 61.7 61.1 61 61.1 60.2V54.6C61.2 53.8 60.5 53.1 59.7 53.1M24.3 64.6H18.7C17.9 64.6 17.2 65.3 17.2 66.1V71.7C17.2 72.5 17.9 73.2 18.7 73.2H24.3C25.1 73.2 25.8 72.5 25.8 71.7V66.1C25.8 65.3 25.2 64.6 24.3 64.6M25.8 54.6C25.8 53.8 25.1 53.1 24.3 53.1H18.7C17.9 53.1 17.2 53.8 17.2 54.6V60.2C17.2 61 17.9 61.7 18.7 61.7H24.3C25.1 61.7 25.8 61 25.8 60.2zM47.9 64.6H42.3C41.5 64.6 40.8 65.3 40.8 66.1V71.7C40.8 72.5 41.5 73.2 42.3 73.2H47.9C48.7 73.2 49.4 72.5 49.4 71.7V66.1C49.4 65.3 48.7 64.6 47.9 64.6M36.1 64.6H30.5C29.7 64.6 29 65.3 29 66.1V71.7C29 72.5 29.7 73.2 30.5 73.2H36.1C36.9 73.2 37.6 72.5 37.6 71.7V66.1C37.6 65.3 36.9 64.6 36.1 64.6M65.8 41.7C65 41.7 64.3 42.4 64.3 43.2V48.8C64.3 49.6 65 50.3 65.8 50.3H71.4C72.2 50.3 72.9 49.6 72.9 48.8V43.2C72.9 42.4 72.2 41.7 71.4 41.7zM4.6 22.2V76.6C4.6 81.5 8.6 85.4 13.4 85.4H56.2C55.5 83.2 55.1 80.9 55.1 78.6H13.5C12.4 78.6 11.5 77.7 11.5 76.6V36.4H78.6V55.2C81 55.2 83.3 55.6 85.4 56.2V22.2C85.4 17.3 81.4 13.4 76.6 13.4H66.7V7.9C66.7 6.1 65.3 4.7 63.5 4.7H58.5C56.7 4.7 55.3 6.1 55.3 7.9V13.4H34.9V7.9C34.9 6.1 33.5 4.7 31.7 4.7H26.7C24.9 4.7 23.5 6.1 23.5 7.9V13.4H13.6C8.6 13.4 4.6 17.4 4.6 22.2M95.4 78.4C95.4 87.7 87.8 95.3 78.5 95.3S61.6 87.7 61.6 78.4 69.2 61.5 78.5 61.5 95.4 69.1 95.4 78.4M87 74.7L83.8 71.5 76.4 78.9 73.3 75.8 69.9 79 73 82.1 76.2 85.4 79.5 82.2z" fill="#d60b00" data-fill-palette-color="accent"></path></svg><g></g></g></svg></g><g id="text-0"><path d="M19.094 105.292v0c-0.291 0.923-0.76 1.623-1.407 2.101-0.647 0.478-1.398 0.582-2.253 0.312v0c-0.93-0.293-1.722-0.787-2.377-1.482-0.657-0.688-1.17-1.494-1.538-2.418-0.368-0.923-0.584-1.873-0.647-2.847-0.054-0.98 0.054-1.898 0.323-2.754v0c0.272-0.862 0.625-1.455 1.06-1.776 0.437-0.329 0.874-0.424 1.312-0.287v0c0.424 0.134 0.811 0.47 1.159 1.01 0.348 0.539 0.586 1.232 0.712 2.079v0c0.065 0.524 0.08 1.11 0.046 1.759-0.027 0.651-0.11 1.195-0.248 1.632v0c-0.106 0.337-0.213 0.488-0.321 0.455v0c-0.081-0.025-0.075-0.186 0.019-0.483v0c0.085-0.269 0.138-0.719 0.158-1.35 0.025-0.621-0.014-1.249-0.118-1.881v0c-0.144-0.719-0.341-1.255-0.593-1.609-0.256-0.362-0.522-0.587-0.798-0.674v0c-0.249-0.079-0.49-0.043-0.723 0.106-0.232 0.149-0.404 0.402-0.516 0.759v0c-0.104 0.33-0.129 0.737-0.074 1.221v0c0.085 0.693 0.337 1.458 0.755 2.293 0.411 0.833 0.919 1.574 1.521 2.224 0.601 0.656 1.238 1.09 1.912 1.302v0c0.465 0.146 0.894 0.137 1.286-0.028 0.399-0.163 0.682-0.507 0.848-1.033v0c0.172-0.546 0.199-1.23 0.08-2.052-0.125-0.825-0.328-1.685-0.609-2.58-0.281-0.896-0.585-1.74-0.913-2.532-0.326-0.799-0.608-1.443-0.847-1.933v0c-0.088-0.168-0.122-0.283-0.103-0.344v0c0.019-0.061 0.083-0.074 0.191-0.04v0c0.148 0.047 0.254 0.147 0.316 0.3v0c0.482 1.033 0.977 2.141 1.486 3.323 0.5 1.187 0.86 2.396 1.079 3.628 0.224 1.241 0.164 2.44-0.178 3.599z" fill="#ff0d01" data-fill-palette-color="primary"></path><path d="M38.224 65.395v0c-0.15 0.188-0.292 0.314-0.425 0.379v0c-0.158-0.515-0.433-1.105-0.824-1.77-0.396-0.669-0.819-1.323-1.267-1.962-0.444-0.644-0.838-1.18-1.182-1.609-0.35-0.433-0.541-0.663-0.575-0.69v0l0.218 1.951c0.044 0.397 0.084 0.822 0.12 1.276 0.036 0.453 0.052 0.891 0.049 1.314v0c-0.003 0.106-0.007 0.207-0.012 0.303-0.004 0.096-0.026 0.169-0.066 0.218v0c-0.057 0.072-0.119 0.081-0.185 0.028v0c-0.105-0.084-0.165-0.258-0.179-0.522v0c-0.042-0.83-0.102-1.745-0.179-2.747-0.071-0.997-0.289-1.867-0.653-2.611v0c-0.134-0.251-0.286-0.446-0.457-0.582v0c-0.226-0.181-0.4-0.247-0.52-0.199v0c-0.108 0.022-0.204 0-0.286-0.066v0c-0.155-0.123-0.17-0.262-0.047-0.417v0c0.079-0.099 0.232-0.194 0.458-0.284 0.226-0.091 0.416-0.142 0.571-0.155v0c0.367-0.041 0.73 0.032 1.087 0.218 0.358 0.186 0.699 0.409 1.025 0.67v0c0.48 0.384 0.983 0.863 1.51 1.437 0.527 0.574 1.003 1.172 1.429 1.793 0.421 0.616 0.726 1.213 0.916 1.79v0l0.035 0.109c0.008-0.157 0.017-0.298 0.028-0.426 0.001-0.126-0.005-0.221-0.017-0.284v0c-0.103-0.923-0.325-1.833-0.666-2.73-0.346-0.891-0.728-1.771-1.147-2.639-0.414-0.873-0.785-1.722-1.114-2.544-0.328-0.823-0.529-1.63-0.602-2.421v0c-0.047-0.462 0.095-0.9 0.426-1.314v0c0.176-0.221 0.418-0.394 0.727-0.518 0.303-0.119 0.627-0.128 0.969-0.026v0c0.098 0.024 0.131 0.073 0.1 0.148-0.032 0.074-0.097 0.099-0.196 0.074v0c-0.338-0.098-0.595-0.037-0.771 0.184v0c-0.181 0.226-0.252 0.649-0.212 1.268v0c0.108 1.099 0.361 2.219 0.76 3.36 0.403 1.136 0.808 2.282 1.213 3.438 0.411 1.16 0.686 2.343 0.826 3.549v0c0.055 0.496-0.01 1.036-0.196 1.62-0.186 0.584-0.416 1.047-0.689 1.389z" fill="#ff0d01" data-fill-palette-color="primary"></path><path d="M72.326 33.932v0c-0.829 0.499-1.644 0.714-2.445 0.644-0.801-0.07-1.433-0.489-1.895-1.258v0c-0.503-0.835-0.77-1.73-0.801-2.685-0.037-0.951 0.113-1.894 0.448-2.83 0.335-0.936 0.802-1.79 1.401-2.562 0.608-0.77 1.296-1.387 2.064-1.85v0c0.775-0.466 1.431-0.677 1.971-0.63 0.545 0.043 0.936 0.261 1.173 0.654v0c0.23 0.381 0.296 0.889 0.201 1.524-0.096 0.635-0.377 1.311-0.844 2.029v0c-0.298 0.435-0.675 0.885-1.13 1.349-0.451 0.47-0.873 0.823-1.266 1.059v0c-0.303 0.182-0.483 0.225-0.541 0.129v0c-0.044-0.073 0.068-0.189 0.333-0.35v0c0.242-0.146 0.58-0.448 1.013-0.907 0.431-0.449 0.816-0.945 1.157-1.488v0c0.368-0.634 0.575-1.167 0.62-1.598 0.048-0.441-0.003-0.786-0.152-1.034v0c-0.135-0.224-0.339-0.357-0.612-0.399-0.273-0.042-0.569 0.034-0.89 0.227v0c-0.296 0.179-0.584 0.467-0.863 0.867v0c-0.395 0.576-0.713 1.316-0.952 2.218-0.243 0.897-0.354 1.788-0.332 2.674 0.016 0.889 0.206 1.636 0.571 2.241v0c0.251 0.418 0.579 0.694 0.982 0.831 0.407 0.142 0.847 0.071 1.319-0.213v0c0.49-0.295 0.963-0.79 1.419-1.485 0.452-0.701 0.869-1.48 1.252-2.338 0.383-0.857 0.713-1.691 0.991-2.502 0.285-0.815 0.5-1.484 0.646-2.009v0c0.046-0.184 0.096-0.293 0.15-0.325v0c0.054-0.033 0.111-0.001 0.169 0.096v0c0.08 0.133 0.093 0.278 0.039 0.434v0c-0.323 1.093-0.685 2.251-1.086 3.474-0.411 1.221-0.942 2.365-1.594 3.434-0.654 1.078-1.492 1.938-2.516 2.579z" fill="#ff0d01" data-fill-palette-color="primary"></path><path d="M111.509 17.136v0c-0.216 0.036-0.482 0.03-0.798-0.017-0.323-0.047-0.66-0.177-1.01-0.391v0c0.189-0.368 0.461-0.864 0.815-1.489 0.347-0.623 0.716-1.315 1.105-2.074 0.39-0.752 0.745-1.502 1.065-2.25v0c-0.29 0.406-0.609 0.839-0.955 1.297-0.346 0.459-0.698 0.886-1.054 1.282v0c-0.077 0.099-0.167 0.157-0.272 0.174v0c-0.091 0.015-0.143-0.019-0.156-0.103v0c-0.019-0.111 0.047-0.258 0.195-0.441v0c0.516-0.644 1.091-1.381 1.727-2.209 0.629-0.828 1.056-1.64 1.281-2.437v0c0.069-0.276 0.085-0.523 0.049-0.739v0c-0.048-0.286-0.132-0.451-0.254-0.494v0c-0.095-0.056-0.151-0.136-0.169-0.241v0c-0.032-0.195 0.049-0.309 0.244-0.341v0c0.105-0.017 0.192-0.01 0.261 0.021v0c0.262 0.071 0.527 0.238 0.793 0.502 0.267 0.271 0.451 0.709 0.551 1.315v0c0.058 0.348 0.082 0.753 0.073 1.213-0.018 0.454-0.087 0.981-0.209 1.581v0c0.256-0.486 0.517-0.963 0.782-1.43 0.266-0.467 0.515-0.888 0.746-1.262v0c0.474-0.766 0.983-1.345 1.527-1.736 0.549-0.399 1.065-0.639 1.545-0.719v0c0.564-0.094 1.045-0.005 1.44 0.265 0.403 0.27 0.648 0.666 0.735 1.188v0c0.068 0.411 0.03 0.851-0.114 1.319v0c-0.034 0.185-0.14 0.474-0.317 0.869-0.184 0.403-0.381 0.833-0.591 1.29-0.217 0.459-0.417 0.871-0.6 1.239v0c-0.221 0.395-0.366 0.727-0.435 0.996-0.071 0.262-0.094 0.47-0.068 0.623v0c0.036 0.216 0.176 0.304 0.419 0.264v0c0.3-0.05 0.695-0.28 1.185-0.692v0c0.295-0.25 0.627-0.58 0.995-0.992 0.362-0.404 0.727-0.819 1.093-1.245 0.365-0.433 0.656-0.789 0.874-1.069v0c0.077-0.099 0.146-0.153 0.209-0.164v0c0.084-0.014 0.134 0.031 0.152 0.136v0c0.022 0.132-0.011 0.26-0.098 0.381v0c-0.553 0.722-1.199 1.51-1.938 2.363-0.738 0.86-1.485 1.554-2.242 2.081v0c-0.621 0.44-1.214 0.707-1.779 0.801v0c-0.474 0.079-0.874 0.017-1.202-0.187-0.32-0.204-0.52-0.544-0.599-1.017v0c-0.058-0.348-0.04-0.777 0.055-1.288v0c0.119-0.621 0.331-1.258 0.638-1.91 0.3-0.651 0.629-1.279 0.987-1.883 0.357-0.611 0.669-1.124 0.935-1.541v0c0.228-0.353 0.324-0.637 0.288-0.854v0c-0.032-0.195-0.178-0.271-0.435-0.228v0c-0.265 0.044-0.627 0.255-1.087 0.632-0.46 0.377-0.95 0.942-1.469 1.694v0c-0.737 1.082-1.352 2.223-1.848 3.423-0.488 1.198-1.088 2.347-1.801 3.446v0c-0.383 0.622-0.805 0.972-1.264 1.048z" fill="#ff0d01" data-fill-palette-color="primary"></path><path d="M161.607 16.243v0c-0.692-0.143-1.179-0.456-1.462-0.94-0.282-0.484-0.348-1.092-0.197-1.826v0c0.143-0.692 0.493-1.463 1.051-2.315v0l0.094-0.142-0.692 0.419c-0.102 0.073-0.208 0.098-0.318 0.075v0c-0.104-0.021-0.146-0.077-0.128-0.167v0c0.021-0.104 0.12-0.217 0.297-0.339v0c0.663-0.383 1.348-0.786 2.056-1.209 0.708-0.424 1.317-0.843 1.828-1.257v0c-0.165 0.031-0.334 0.028-0.507-0.007v0c-0.173-0.036-0.292-0.104-0.358-0.204v0c-0.129-0.142-0.166-0.351-0.109-0.628v0c0.049-0.235 0.214-0.461 0.497-0.677 0.274-0.21 0.788-0.339 1.54-0.385v0c0.161-0.01 0.324-0.013 0.488-0.008 0.17 0.013 0.33 0.025 0.48 0.034v0c0.892-0.826 1.682-1.6 2.372-2.323 0.69-0.723 1.212-1.192 1.567-1.408v0c0.163-0.125 0.422-0.209 0.777-0.251 0.353-0.035 0.728-0.048 1.122-0.039 0.386 0.015 0.69 0.045 0.912 0.09v0c0.706 0.146 1.045 0.284 1.018 0.416v0c-0.017 0.083-0.218 0.254-0.604 0.514v0c-0.647 0.408-1.412 0.917-2.295 1.528-0.878 0.62-1.785 1.294-2.722 2.024v0c0.606 0.211 1.15 0.49 1.635 0.835 0.476 0.351 0.794 0.73 0.955 1.138v0c0.067 0.129 0.085 0.27 0.054 0.422v0c-0.036 0.173-0.109 0.248-0.22 0.226v0c-0.083-0.017-0.168-0.092-0.256-0.226v0c-0.357-0.542-1.065-0.923-2.123-1.141v0c-0.214-0.044-0.438-0.08-0.671-0.106-0.226-0.025-0.464-0.042-0.714-0.05v0c-0.929 0.797-1.792 1.607-2.589 2.43-0.797 0.824-1.409 1.621-1.835 2.391v0c-0.211 0.36-0.351 0.703-0.418 1.029v0c-0.066 0.318-0.044 0.597 0.066 0.835 0.111 0.232 0.315 0.379 0.613 0.44v0c0.194 0.04 0.443 0.037 0.748-0.008v0c0.44-0.068 0.966-0.223 1.578-0.464 0.614-0.248 1.24-0.541 1.879-0.878 0.641-0.344 1.247-0.68 1.82-1.01 0.58-0.328 1.06-0.611 1.441-0.849 0.387-0.23 0.606-0.366 0.657-0.406v0c0.082-0.048 0.144-0.068 0.186-0.059v0c0.083 0.017 0.111 0.091 0.083 0.223v0c-0.031 0.152-0.122 0.278-0.272 0.377v0c-0.266 0.169-0.661 0.426-1.187 0.772-0.531 0.338-1.138 0.71-1.821 1.117-0.677 0.416-1.389 0.792-2.136 1.128-0.742 0.345-1.473 0.605-2.195 0.781-0.721 0.176-1.383 0.202-1.985 0.078z" fill="#ff0d01" data-fill-palette-color="primary"></path><path d="M212.975 24.926v0c-0.265-0.163-0.412-0.369-0.441-0.619-0.029-0.25 0.014-0.468 0.128-0.655v0c0.233-0.379 0.641-0.639 1.224-0.778 0.581-0.149 1.067-0.104 1.458 0.137v0c0.265 0.163 0.412 0.369 0.441 0.619 0.023 0.246-0.023 0.463-0.138 0.649v0c-0.244 0.397-0.647 0.668-1.208 0.812-0.567 0.141-1.055 0.086-1.464-0.165zM203.367 30.913v0c-0.771-0.473-1.191-0.955-1.262-1.447-0.068-0.497 0.024-0.951 0.275-1.36v0c0.207-0.337 0.464-0.627 0.771-0.87 0.297-0.24 0.525-0.403 0.684-0.487v0c0.229-0.116 0.516-0.239 0.86-0.367 0.346-0.119 0.727-0.246 1.141-0.381v0c-0.569 0.09-1.109 0.186-1.618 0.287-0.516 0.098-0.922 0.159-1.219 0.184v0c-0.087 0.021-0.161 0.013-0.222-0.025v0c-0.072-0.044-0.079-0.115-0.02-0.211v0c0.092-0.15 0.285-0.235 0.579-0.253v0c0.743-0.116 1.492-0.277 2.249-0.484 0.763-0.203 1.478-0.389 2.147-0.56 0.674-0.166 1.222-0.236 1.645-0.208v0c0.452 0.02 0.798 0.063 1.04 0.128 0.238 0.071 0.423 0.148 0.555 0.23v0c0.205 0.126 0.335 0.251 0.391 0.376 0.05 0.122 0.025 0.202-0.074 0.241v0c-0.515 0.123-1.079 0.34-1.693 0.651-0.616 0.301-1.222 0.647-1.817 1.036-0.598 0.379-1.124 0.764-1.58 1.156-0.462 0.388-0.796 0.75-1.003 1.087v0c-0.288 0.47-0.246 0.819 0.127 1.048v0c0.361 0.222 0.929 0.343 1.705 0.363 0.771 0.026 1.625-0.022 2.562-0.143 0.937-0.121 1.828-0.257 2.675-0.409v0c0.12-0.034 0.208-0.034 0.262-0.001v0c0.096 0.059 0.121 0.141 0.074 0.245-0.049 0.094-0.114 0.145-0.195 0.154v0c-0.975 0.197-2.045 0.373-3.209 0.529-1.167 0.146-2.27 0.194-3.309 0.144-1.043-0.043-1.883-0.261-2.521-0.653z" fill="#ff0d01" data-fill-palette-color="primary"></path><path d="M233.584 59.772v0c0.013-0.598 0.165-1.114 0.454-1.55 0.285-0.441 0.618-0.808 0.999-1.1v0c0.65-0.499 1.589-0.992 2.818-1.48 1.234-0.492 2.598-0.919 4.091-1.281v0c-0.047-0.026-0.083-0.056-0.109-0.09v0c-0.064-0.084-0.034-0.254 0.09-0.509 0.129-0.25 0.305-0.461 0.53-0.633v0c0.247-0.189 0.558-0.294 0.933-0.315 0.37-0.017 0.804 0.172 1.301 0.564v0c0.111 0.075 0.252 0.189 0.423 0.343v0c1.474-0.249 2.889-0.382 4.247-0.399 1.367-0.016 2.514 0.133 3.44 0.447v0c0.59 0.189 1.122 0.453 1.596 0.792 0.468 0.344 0.87 0.735 1.205 1.172v0c0.404 0.527 0.704 1.116 0.901 1.766 0.191 0.655 0.23 1.292 0.118 1.913-0.122 0.619-0.463 1.143-1.024 1.573v0l-0.025 0.019c-0.073 0.056-0.131 0.056-0.174 0-0.039-0.05-0.026-0.127 0.038-0.23v0c0.376-0.484 0.532-0.978 0.467-1.479-0.069-0.508-0.263-0.969-0.58-1.385v0c-0.254-0.331-0.563-0.623-0.927-0.878-0.36-0.249-0.711-0.434-1.053-0.554v0c-0.884-0.328-1.922-0.533-3.116-0.616-1.188-0.086-2.323-0.115-3.404-0.086v0c0.322 0.501 0.568 0.984 0.738 1.45 0.165 0.47 0.244 0.846 0.237 1.127v0c0.015 0.38-0.027 0.702-0.128 0.966v0c-0.067 0.167-0.146 0.286-0.236 0.354v0c-0.107 0.082-0.194 0.078-0.263-0.012v0c-0.039-0.05-0.071-0.15-0.096-0.3v0c-0.033-0.473-0.304-1.04-0.811-1.702v0c-0.215-0.28-0.472-0.569-0.77-0.865-0.293-0.301-0.634-0.595-1.024-0.883v0l-0.754 0.044c-1.254 0.071-2.467 0.236-3.64 0.494-1.168 0.264-2.218 0.584-3.15 0.96-0.927 0.381-1.671 0.787-2.231 1.217v0c-0.488 0.374-0.784 0.766-0.888 1.175v0c-0.024 0.108-0.072 0.144-0.143 0.11-0.061-0.033-0.088-0.08-0.08-0.139z" fill="#ff0d01" data-fill-palette-color="primary"></path><path d="M248.007 93.247v0c-0.294-1.011-0.413-1.988-0.356-2.931 0.061-0.952 0.335-1.808 0.819-2.567v0c0.492-0.761 1.26-1.397 2.304-1.906v0c0.151-0.088 0.245-0.068 0.282 0.061v0c0.024 0.081-0.03 0.163-0.16 0.245v0c-1.118 0.583-1.913 1.44-2.386 2.571-0.471 1.138-0.534 2.296-0.191 3.476v0c0.32 1.099 0.934 2.123 1.843 3.072 0.909 0.949 2.016 1.808 3.321 2.576 1.312 0.766 2.737 1.429 4.276 1.989v0c1.645 0.595 3.315 1.088 5.01 1.477 1.688 0.391 3.382 0.752 5.082 1.081v0c-0.481-0.162-0.974-0.327-1.48-0.496-0.507-0.176-0.983-0.358-1.427-0.545v0c-0.885-0.36-1.81-0.797-2.777-1.311-0.957-0.509-1.802-1.046-2.533-1.613-0.725-0.569-1.173-1.148-1.345-1.738v0c-0.136-0.468-0.123-0.891 0.039-1.269 0.169-0.38 0.518-0.647 1.047-0.802v0c0.461-0.134 0.913-0.174 1.356-0.119 0.436 0.057 0.854 0.141 1.254 0.253v0c0.701 0.186 1.43 0.441 2.187 0.765 0.758 0.331 1.403 0.625 1.935 0.883v0c0.347 0.156 0.606 0.21 0.775 0.16v0c0.21-0.061 0.281-0.21 0.211-0.448v0c-0.079-0.271-0.35-0.571-0.813-0.899v0c-0.506-0.397-1.083-0.788-1.732-1.174-0.649-0.385-1.266-0.746-1.85-1.083-0.575-0.333-1.032-0.612-1.369-0.838v0c-0.15-0.111-0.235-0.2-0.255-0.268v0c-0.024-0.081 0.009-0.135 0.097-0.16v0c0.122-0.036 0.269 0.003 0.442 0.114v0c0.482 0.316 1.036 0.64 1.662 0.973 0.62 0.335 1.236 0.67 1.849 1.006 0.613 0.337 1.127 0.661 1.542 0.975v0c0.344 0.246 0.623 0.521 0.837 0.827 0.221 0.304 0.374 0.601 0.458 0.893v0c0.148 0.509 0.123 0.979-0.074 1.412-0.196 0.44-0.558 0.736-1.087 0.89v0c-0.4 0.116-0.851 0.134-1.354 0.052v0c-0.604-0.104-1.22-0.274-1.848-0.51-0.637-0.241-1.248-0.472-1.834-0.691v0c-0.479-0.155-0.866-0.259-1.162-0.313-0.288-0.056-0.487-0.068-0.595-0.037v0c-0.19 0.055-0.26 0.168-0.211 0.338v0c0.049 0.17 0.216 0.389 0.501 0.659 0.287 0.277 0.629 0.542 1.026 0.794v0c0.695 0.416 1.525 0.855 2.491 1.317 0.973 0.46 1.979 0.895 3.018 1.306 1.031 0.406 1.976 0.749 2.837 1.028v0c0.783 0.088 1.489 0.225 2.117 0.411 0.628 0.185 1.019 0.542 1.172 1.071v0c0.087 0.298 0.071 0.56-0.047 0.786-0.118 0.226-0.262 0.363-0.431 0.412v0c-0.149 0.043-0.289 0.018-0.42-0.076-0.132-0.101-0.231-0.301-0.295-0.598v0c-0.028-0.249-0.146-0.502-0.354-0.758-0.216-0.261-0.709-0.452-1.48-0.574v0c-0.858-0.118-1.837-0.183-2.936-0.193-1.106-0.009-2.3-0.055-3.583-0.138-1.282-0.083-2.645-0.29-4.087-0.62-1.434-0.326-2.917-0.884-4.449-1.674v0c-1.513-0.774-2.913-1.804-4.199-3.092-1.294-1.286-2.184-2.763-2.67-4.432z" fill="#ff0d01" data-fill-palette-color="primary"></path><path d="M7.18 178.47v0c-0.155-0.529-0.152-1.012 0.007-1.449 0.153-0.435 0.476-0.724 0.971-0.869v0c0.536-0.157 1.068-0.173 1.598-0.047 0.534 0.116 1.037 0.337 1.507 0.663 0.469 0.319 0.871 0.702 1.208 1.148 0.343 0.444 0.587 0.914 0.732 1.408v0c0.147 0.502 0.167 0.897 0.06 1.186-0.105 0.296-0.283 0.48-0.534 0.554v0c-0.244 0.071-0.534 0.035-0.871-0.11-0.337-0.144-0.672-0.399-1.007-0.765v0c-0.193-0.231-0.387-0.505-0.583-0.823-0.189-0.32-0.321-0.605-0.394-0.856v0c-0.058-0.197-0.056-0.304 0.005-0.322v0c0.047-0.014 0.096 0.064 0.146 0.233v0c0.048 0.163 0.164 0.397 0.349 0.704 0.192 0.304 0.412 0.59 0.659 0.856v0c0.293 0.297 0.559 0.488 0.797 0.573 0.233 0.094 0.432 0.117 0.594 0.069v0c0.142-0.042 0.244-0.134 0.305-0.277 0.068-0.145 0.071-0.323 0.01-0.533v0c-0.056-0.19-0.173-0.391-0.353-0.603v0c-0.264-0.298-0.627-0.582-1.088-0.852-0.466-0.261-0.945-0.452-1.437-0.573-0.498-0.119-0.941-0.122-1.328-0.009v0c-0.264 0.077-0.465 0.221-0.602 0.43-0.139 0.203-0.165 0.457-0.076 0.762v0c0.091 0.312 0.299 0.645 0.624 0.998 0.316 0.349 0.685 0.694 1.108 1.034 0.421 0.333 0.835 0.639 1.24 0.918 0.41 0.27 0.749 0.484 1.015 0.642v0c0.096 0.053 0.15 0.096 0.16 0.13v0c0.012 0.041-0.013 0.07-0.074 0.087v0c-0.088 0.026-0.17 0.009-0.246-0.049v0c-0.562-0.336-1.152-0.705-1.77-1.105-0.613-0.41-1.171-0.872-1.675-1.387-0.497-0.517-0.85-1.106-1.057-1.766z" fill="#ff0d01" data-fill-palette-color="primary"></path><path d="M29.098 223.161v0c-0.086-0.112-0.137-0.207-0.152-0.284v0c0.309-0.015 0.676-0.088 1.102-0.219 0.425-0.131 0.844-0.276 1.257-0.434 0.419-0.162 0.773-0.31 1.063-0.443 0.285-0.139 0.436-0.215 0.453-0.229v0l-1.108-0.136c-0.232-0.035-0.474-0.072-0.727-0.11-0.256-0.043-0.501-0.095-0.735-0.156v0c-0.064-0.013-0.12-0.028-0.168-0.044-0.058-0.018-0.098-0.04-0.119-0.068v0c-0.03-0.039-0.026-0.074 0.013-0.105v0c0.062-0.047 0.166-0.057 0.313-0.027v0c0.467 0.086 0.984 0.178 1.551 0.277 0.572 0.094 1.086 0.091 1.543-0.011v0c0.162-0.044 0.293-0.105 0.394-0.183v0c0.129-0.099 0.188-0.185 0.177-0.256v0c-0.002-0.061 0.022-0.11 0.072-0.149v0c0.09-0.069 0.169-0.059 0.238 0.03v0c0.047 0.062 0.083 0.159 0.105 0.294 0.017 0.138 0.02 0.252 0.009 0.341v0c-0.027 0.208-0.12 0.4-0.279 0.576-0.153 0.171-0.325 0.33-0.516 0.476v0c-0.28 0.215-0.613 0.432-0.998 0.649-0.39 0.211-0.786 0.391-1.188 0.541-0.402 0.149-0.776 0.237-1.122 0.262v0l-0.07 0.013c0.082 0.026 0.162 0.049 0.24 0.069 0.068 0.019 0.117 0.03 0.147 0.034v0c0.535 0.07 1.074 0.069 1.617-0.001 0.543-0.07 1.084-0.161 1.622-0.273 0.544-0.116 1.067-0.206 1.569-0.272 0.503-0.076 0.98-0.077 1.428-0.003v0c0.263 0.029 0.487 0.164 0.673 0.405v0c0.099 0.129 0.164 0.288 0.195 0.478 0.021 0.189-0.021 0.373-0.125 0.551v0c-0.026 0.047-0.058 0.058-0.095 0.033-0.031-0.029-0.036-0.07-0.014-0.123v0c0.104-0.178 0.106-0.331 0.007-0.46v0c-0.099-0.129-0.324-0.223-0.673-0.284v0c-0.633-0.092-1.291-0.102-1.976-0.03-0.689 0.067-1.382 0.133-2.081 0.198-0.7 0.075-1.396 0.068-2.09-0.022v0c-0.282-0.042-0.572-0.152-0.871-0.333-0.299-0.18-0.526-0.371-0.681-0.572z" fill="#ff0d01" data-fill-palette-color="primary"></path><path d="M66.228 258.031v0c-0.469-0.288-0.791-0.648-0.966-1.079-0.178-0.425-0.133-0.857 0.137-1.296v0c0.292-0.475 0.676-0.845 1.153-1.107 0.474-0.272 0.995-0.446 1.563-0.52 0.562-0.078 1.117-0.064 1.666 0.041 0.553 0.099 1.049 0.284 1.488 0.554v0c0.445 0.274 0.725 0.553 0.84 0.839 0.12 0.29 0.112 0.546-0.025 0.769v0c-0.133 0.217-0.373 0.384-0.719 0.503-0.347 0.119-0.767 0.155-1.261 0.108v0c-0.298-0.042-0.626-0.115-0.984-0.219-0.355-0.11-0.644-0.234-0.867-0.371v0c-0.175-0.107-0.245-0.188-0.212-0.242v0c0.026-0.042 0.114-0.017 0.265 0.075v0c0.144 0.089 0.388 0.185 0.731 0.288 0.347 0.097 0.701 0.161 1.063 0.193v0c0.416 0.024 0.742-0.013 0.975-0.11 0.236-0.087 0.398-0.203 0.487-0.347v0c0.078-0.126 0.091-0.263 0.041-0.41-0.047-0.153-0.164-0.287-0.35-0.402v0c-0.169-0.104-0.391-0.174-0.667-0.21v0c-0.396-0.044-0.855-0.011-1.378 0.098-0.521 0.119-1.004 0.299-1.451 0.538-0.45 0.246-0.78 0.541-0.991 0.884v0c-0.144 0.235-0.197 0.476-0.158 0.723 0.033 0.244 0.184 0.449 0.455 0.616v0c0.277 0.17 0.654 0.278 1.132 0.323 0.468 0.047 0.973 0.055 1.516 0.023 0.536-0.036 1.048-0.086 1.535-0.151 0.485-0.075 0.88-0.143 1.183-0.205v0c0.107-0.026 0.175-0.029 0.206-0.011v0c0.036 0.022 0.038 0.06 0.004 0.114v0c-0.048 0.078-0.12 0.121-0.216 0.129v0c-0.642 0.128-1.327 0.25-2.053 0.367-0.729 0.107-1.453 0.139-2.173 0.095-0.715-0.05-1.372-0.25-1.969-0.6z" fill="#ff0d01" data-fill-palette-color="primary"></path><path d="M111.588 276.418v0c-0.125-0.022-0.27-0.076-0.434-0.163-0.164-0.086-0.32-0.221-0.467-0.405v0c0.171-0.156 0.413-0.372 0.727-0.646 0.306-0.269 0.635-0.573 0.99-0.913 0.353-0.332 0.688-0.668 1.006-1.006v0c-0.236 0.159-0.492 0.329-0.768 0.51-0.277 0.188-0.546 0.352-0.808 0.493v0c-0.064 0.039-0.124 0.053-0.18 0.043v0c-0.056-0.01-0.079-0.039-0.07-0.087v0c0.011-0.063 0.076-0.126 0.195-0.192v0c0.403-0.252 0.852-0.542 1.348-0.87 0.502-0.327 0.888-0.683 1.156-1.066v0c0.09-0.142 0.145-0.276 0.167-0.401v0c0.028-0.16 0.014-0.263-0.042-0.309v0c-0.043-0.043-0.058-0.096-0.047-0.159v0c0.02-0.111 0.085-0.157 0.196-0.137v0c0.063 0.011 0.109 0.03 0.141 0.057v0c0.128 0.087 0.239 0.229 0.334 0.425 0.095 0.196 0.111 0.468 0.049 0.815v0c-0.034 0.195-0.099 0.417-0.192 0.666-0.094 0.249-0.232 0.522-0.414 0.82v0c0.225-0.219 0.456-0.429 0.692-0.631 0.235-0.195 0.449-0.373 0.643-0.533v0c0.403-0.331 0.789-0.549 1.159-0.656 0.37-0.107 0.691-0.136 0.963-0.088v0c0.327 0.058 0.571 0.198 0.733 0.419 0.169 0.223 0.227 0.485 0.173 0.784v0c-0.042 0.237-0.147 0.465-0.314 0.687v0c-0.052 0.091-0.166 0.229-0.342 0.413-0.168 0.178-0.356 0.371-0.565 0.578-0.202 0.208-0.385 0.395-0.55 0.56v0c-0.201 0.165-0.346 0.316-0.435 0.45-0.088 0.135-0.14 0.244-0.154 0.328v0c-0.022 0.125 0.036 0.2 0.175 0.225v0c0.174 0.031 0.434-0.02 0.78-0.153v0c0.2-0.079 0.44-0.195 0.718-0.347 0.277-0.145 0.555-0.3 0.835-0.466 0.279-0.159 0.504-0.295 0.675-0.409v0c0.057-0.04 0.107-0.056 0.148-0.049v0c0.049 0.009 0.068 0.044 0.057 0.107v0c-0.013 0.077-0.057 0.141-0.131 0.192v0c-0.437 0.282-0.935 0.581-1.493 0.899-0.566 0.323-1.106 0.555-1.618 0.694v0c-0.416 0.12-0.784 0.152-1.103 0.096v0c-0.271-0.048-0.478-0.156-0.621-0.325-0.134-0.174-0.177-0.397-0.129-0.668v0c0.036-0.202 0.126-0.43 0.271-0.684v0c0.184-0.312 0.42-0.614 0.709-0.908 0.288-0.293 0.588-0.571 0.899-0.831 0.304-0.262 0.569-0.481 0.794-0.656v0c0.191-0.146 0.297-0.281 0.319-0.407v0c0.02-0.111-0.044-0.18-0.19-0.205v0c-0.146-0.026-0.38 0.019-0.701 0.134-0.322 0.115-0.696 0.329-1.125 0.641v0c-0.601 0.439-1.152 0.937-1.651 1.495-0.492 0.552-1.032 1.055-1.622 1.511v0c-0.326 0.265-0.622 0.374-0.886 0.328z" fill="#ff0d01" data-fill-palette-color="primary"></path><path d="M164.812 277.323v0c-0.395 0.079-0.723 0.022-0.985-0.171-0.253-0.187-0.422-0.492-0.507-0.915v0c-0.079-0.395-0.067-0.88 0.035-1.454v0l0.023-0.102-0.271 0.378c-0.037 0.065-0.087 0.104-0.149 0.116v0c-0.062 0.012-0.099-0.009-0.11-0.064v0c-0.011-0.055 0.016-0.136 0.081-0.244v0c0.269-0.349 0.542-0.713 0.819-1.092 0.276-0.386 0.503-0.745 0.683-1.076v0c-0.083 0.053-0.173 0.089-0.271 0.108v0c-0.097 0.019-0.175 0.01-0.232-0.029v0c-0.102-0.044-0.17-0.146-0.202-0.306v0c-0.028-0.139 0.01-0.294 0.113-0.465 0.103-0.172 0.344-0.353 0.724-0.544v0c0.085-0.046 0.17-0.084 0.257-0.116 0.094-0.033 0.182-0.062 0.264-0.085v0c0.283-0.64 0.527-1.225 0.731-1.756 0.203-0.537 0.375-0.903 0.516-1.096v0c0.058-0.105 0.175-0.208 0.349-0.308 0.182-0.101 0.376-0.19 0.585-0.267 0.208-0.077 0.374-0.129 0.498-0.154v0c0.409-0.081 0.62-0.087 0.634-0.018v0c0.011 0.055-0.059 0.192-0.21 0.409v0c-0.245 0.359-0.532 0.801-0.859 1.327-0.329 0.519-0.657 1.075-0.986 1.666v0c0.363-0.022 0.711 0.006 1.043 0.084 0.331 0.071 0.584 0.201 0.758 0.389v0c0.068 0.051 0.11 0.119 0.126 0.202v0c0.019 0.097-0.002 0.152-0.064 0.164v0c-0.049 0.01-0.11-0.01-0.185-0.06v0c-0.314-0.204-0.773-0.246-1.375-0.126v0c-0.125 0.025-0.251 0.057-0.381 0.097-0.129 0.04-0.257 0.084-0.384 0.131v0c-0.314 0.631-0.59 1.252-0.829 1.861-0.237 0.616-0.383 1.171-0.435 1.664v0c-0.031 0.244-0.028 0.456 0.007 0.636v0c0.037 0.187 0.113 0.33 0.227 0.431 0.107 0.101 0.246 0.135 0.419 0.1v0c0.111-0.022 0.24-0.08 0.387-0.175v0c0.219-0.13 0.464-0.33 0.734-0.6 0.265-0.262 0.53-0.556 0.796-0.882 0.261-0.318 0.508-0.631 0.743-0.937 0.227-0.305 0.414-0.561 0.56-0.77 0.153-0.21 0.241-0.329 0.264-0.355v0c0.028-0.042 0.055-0.065 0.083-0.071v0c0.049-0.01 0.08 0.02 0.093 0.089v0c0.018 0.09-0.004 0.177-0.066 0.262v0c-0.1 0.15-0.25 0.374-0.45 0.673-0.207 0.3-0.443 0.632-0.709 0.995-0.265 0.37-0.557 0.727-0.878 1.072-0.312 0.35-0.641 0.65-0.987 0.899-0.338 0.255-0.681 0.416-1.027 0.485z" fill="#ff0d01" data-fill-palette-color="primary"></path><path d="M210.572 252.99v0c-0.15 0.093-0.294 0.116-0.431 0.068-0.132-0.051-0.231-0.131-0.298-0.239v0c-0.134-0.216-0.163-0.489-0.086-0.82 0.074-0.337 0.221-0.574 0.444-0.712v0c0.15-0.093 0.294-0.116 0.431-0.068 0.132 0.051 0.231 0.131 0.298 0.239v0c0.138 0.222 0.171 0.496 0.1 0.823-0.071 0.327-0.224 0.563-0.458 0.709zM211.18 259.448v0c-0.438 0.272-0.793 0.364-1.064 0.275-0.275-0.095-0.486-0.26-0.631-0.494v0c-0.119-0.192-0.2-0.395-0.242-0.61-0.052-0.217-0.076-0.377-0.073-0.479v0c-0.007-0.145 0.003-0.322 0.031-0.531 0.025-0.215 0.057-0.443 0.099-0.685v0c-0.104 0.314-0.197 0.613-0.279 0.897-0.078 0.29-0.151 0.514-0.218 0.672v0c-0.008 0.055-0.029 0.093-0.066 0.116v0c-0.042 0.026-0.08 0.012-0.113-0.042v0c-0.056-0.09-0.05-0.214 0.018-0.373v0c0.131-0.405 0.242-0.828 0.334-1.268 0.089-0.446 0.176-0.862 0.261-1.248 0.085-0.385 0.19-0.684 0.317-0.895v0c0.125-0.227 0.235-0.391 0.33-0.492 0.098-0.111 0.182-0.188 0.254-0.233v0c0.12-0.075 0.22-0.108 0.3-0.099 0.076 0.002 0.113 0.034 0.109 0.094v0c-0.074 0.296-0.109 0.641-0.104 1.038-0.005 0.394 0.015 0.793 0.059 1.198 0.04 0.399 0.103 0.768 0.188 1.106 0.081 0.332 0.182 0.594 0.301 0.786v0c0.168 0.27 0.36 0.338 0.576 0.204v0c0.204-0.127 0.41-0.384 0.619-0.771 0.205-0.393 0.398-0.846 0.578-1.358 0.181-0.512 0.342-1.002 0.482-1.472v0c0.012-0.074 0.033-0.12 0.064-0.139v0c0.054-0.034 0.101-0.025 0.14 0.025 0.04 0.05 0.052 0.097 0.037 0.139v0c-0.149 0.55-0.334 1.143-0.554 1.779-0.22 0.636-0.476 1.215-0.767 1.736-0.291 0.522-0.62 0.897-0.986 1.124z" fill="#ff0d01" data-fill-palette-color="primary"></path><path d="M249.035 228.365v0c-0.336 0.083-0.647 0.079-0.932-0.011-0.285-0.091-0.538-0.219-0.758-0.385v0c-0.373-0.28-0.791-0.723-1.255-1.328-0.454-0.607-0.899-1.29-1.335-2.051v0c-0.001 0.025-0.011 0.049-0.028 0.072v0c-0.038 0.051-0.136 0.057-0.292 0.019-0.161-0.033-0.306-0.098-0.437-0.195v0c-0.141-0.106-0.246-0.26-0.315-0.463-0.069-0.202-0.031-0.47 0.113-0.803v0c0.02-0.073 0.06-0.167 0.12-0.281v0c-0.362-0.776-0.654-1.539-0.877-2.29-0.217-0.746-0.312-1.401-0.286-1.965v0c0.016-0.35 0.085-0.683 0.207-0.998 0.112-0.313 0.263-0.597 0.454-0.851v0c0.229-0.305 0.509-0.559 0.838-0.762 0.328-0.213 0.674-0.333 1.039-0.359 0.359-0.031 0.699 0.075 1.021 0.317v0l0.017 0.013c0.04 0.03 0.047 0.062 0.021 0.095-0.021 0.028-0.064 0.032-0.127 0.011v0c-0.326-0.13-0.622-0.136-0.888-0.018-0.267 0.108-0.492 0.284-0.675 0.526v0c-0.144 0.192-0.258 0.407-0.339 0.646-0.088 0.234-0.14 0.456-0.156 0.666v0c-0.04 0.535 0.01 1.139 0.151 1.809 0.131 0.673 0.288 1.304 0.472 1.893v0c0.226-0.254 0.454-0.463 0.683-0.626 0.239-0.165 0.434-0.266 0.585-0.302v0c0.208-0.065 0.396-0.091 0.564-0.08v0c0.097 0.011 0.172 0.036 0.223 0.074v0c0.062 0.047 0.074 0.095 0.035 0.146v0c-0.021 0.028-0.072 0.061-0.152 0.098v0c-0.254 0.092-0.526 0.329-0.815 0.713v0c-0.119 0.158-0.239 0.342-0.361 0.55-0.116 0.213-0.224 0.45-0.323 0.712v0l0.142 0.411c0.227 0.674 0.504 1.316 0.832 1.926 0.323 0.605 0.663 1.135 1.02 1.588 0.347 0.455 0.681 0.804 1.003 1.046v0c0.282 0.212 0.546 0.314 0.792 0.304v0c0.061 0.001 0.089 0.023 0.085 0.064-0.014 0.042-0.036 0.066-0.066 0.069z" fill="#ff0d01" data-fill-palette-color="primary"></path><path d="M275.091 187.97v0c-0.163 0.585-0.401 1.098-0.715 1.539-0.314 0.441-0.704 0.775-1.171 1.005v0c-0.465 0.222-1.03 0.3-1.693 0.232v0c-0.101-0.006-0.142-0.043-0.123-0.112v0c0.013-0.048 0.065-0.074 0.154-0.078v0c0.718 0.054 1.362-0.123 1.93-0.529 0.577-0.411 0.96-0.957 1.149-1.637v0c0.175-0.626 0.185-1.309 0.032-2.048-0.153-0.739-0.435-1.492-0.844-2.26-0.41-0.767-0.903-1.521-1.481-2.261v0c-0.618-0.781-1.28-1.523-1.987-2.225-0.706-0.703-1.424-1.391-2.152-2.064v0c0.188 0.221 0.377 0.45 0.567 0.687 0.198 0.238 0.375 0.471 0.532 0.698v0c0.324 0.442 0.642 0.934 0.952 1.475 0.32 0.536 0.571 1.054 0.755 1.553 0.177 0.497 0.218 0.915 0.123 1.255v0c-0.074 0.265-0.207 0.467-0.399 0.604-0.199 0.135-0.448 0.161-0.748 0.077v0c-0.265-0.074-0.496-0.193-0.692-0.358-0.198-0.158-0.379-0.326-0.542-0.503v0c-0.283-0.299-0.561-0.644-0.833-1.035-0.265-0.389-0.49-0.727-0.674-1.013v0c-0.12-0.173-0.232-0.274-0.334-0.302v0c-0.116-0.032-0.192 0.016-0.228 0.145v0c-0.044 0.157-0.004 0.384 0.118 0.682v0c0.123 0.349 0.284 0.717 0.485 1.103 0.202 0.379 0.396 0.737 0.58 1.075 0.176 0.342 0.315 0.619 0.417 0.831v0c0.038 0.099 0.053 0.165 0.044 0.2v0c-0.015 0.054-0.05 0.074-0.105 0.058v0c-0.068-0.019-0.127-0.083-0.177-0.192v0c-0.136-0.302-0.305-0.628-0.509-0.978-0.203-0.35-0.406-0.7-0.609-1.05-0.196-0.348-0.347-0.661-0.453-0.94v0c-0.092-0.224-0.145-0.44-0.16-0.649-0.013-0.216 0.004-0.409 0.052-0.58v0c0.082-0.293 0.235-0.514 0.46-0.664 0.227-0.157 0.494-0.192 0.8-0.107v0c0.231 0.065 0.456 0.193 0.673 0.386v0c0.264 0.235 0.515 0.507 0.752 0.815 0.23 0.306 0.456 0.6 0.678 0.882v0c0.188 0.221 0.346 0.39 0.475 0.506 0.122 0.115 0.214 0.181 0.275 0.198v0c0.109 0.03 0.178-0.005 0.206-0.108v0c0.027-0.095 0.012-0.253-0.044-0.474-0.058-0.214-0.144-0.443-0.259-0.688v0c-0.215-0.412-0.489-0.877-0.821-1.395-0.332-0.518-0.688-1.031-1.067-1.541-0.384-0.518-0.741-0.973-1.071-1.365v0c-0.354-0.282-0.658-0.561-0.91-0.837-0.244-0.281-0.325-0.571-0.242-0.87v0c0.047-0.17 0.133-0.293 0.257-0.369 0.126-0.082 0.236-0.11 0.331-0.083v0c0.088 0.025 0.149 0.082 0.183 0.172 0.034 0.09 0.02 0.218-0.041 0.384v0c-0.056 0.124-0.074 0.28-0.054 0.469 0.027 0.191 0.209 0.432 0.546 0.724v0c0.38 0.319 0.839 0.648 1.375 0.989 0.538 0.333 1.106 0.715 1.704 1.146 0.599 0.431 1.197 0.942 1.794 1.534 0.604 0.594 1.159 1.313 1.665 2.158v0c0.5 0.836 0.873 1.761 1.118 2.776 0.238 1.012 0.224 1.998-0.044 2.957z" fill="#ff0d01" data-fill-palette-color="primary"></path><path d="M0 140.768c0-3.586 2.907-6.492 6.492-6.492 3.586 0 6.492 2.907 6.493 6.492 0 3.586-2.907 6.492-6.493 6.492-3.586 0-6.492-2.907-6.492-6.492z" fill="#ff0d01" data-fill-palette-color="primary"></path><path d="M267.015 140.768c0-3.586 2.907-6.492 6.493-6.492 3.586 0 6.492 2.907 6.492 6.492 0 3.586-2.907 6.492-6.492 6.492-3.586 0-6.492-2.907-6.493-6.492z" fill="#ff0d01" data-fill-palette-color="primary"></path></g><g id="text-1"></g></svg></g></svg></g></svg></g><g></g></svg></g><defs></defs></svg><rect width="280" height="280" fill="none" stroke="none" visibility="hidden"></rect></g></svg></g></svg>